<?xml version="1.0" encoding="UTF-8"?> <svg xmlns="http://www.w3.org/2000/svg" width="148" height="20" viewBox="0 0 148 20" fill="none"> <path d="M0.242898 19V16.2656L8.83665 4.79545H0.278409V0.818181H15.1222V3.55256L6.52841 15.0227H15.0866V19H0.242898ZM22.4664 0.818181V19H17.5303V0.818181H22.4664ZM29.7417 0.818181V19H24.8057V0.818181H29.7417ZM38.7217 19.2486C37.242 19.2486 35.9755 18.9556 34.922 18.3697C33.8685 17.7778 33.0606 16.9551 32.4983 15.9016C31.936 14.8422 31.6549 13.6141 31.6549 12.2173C31.6549 10.8205 31.936 9.59541 32.4983 8.5419C33.0606 7.48248 33.8685 6.6598 34.922 6.07386C35.9755 5.48201 37.242 5.18608 38.7217 5.18608C40.2013 5.18608 41.4679 5.48201 42.5214 6.07386C43.5749 6.6598 44.3828 7.48248 44.945 8.5419C45.5073 9.59541 45.7884 10.8205 45.7884 12.2173C45.7884 13.6141 45.5073 14.8422 44.945 15.9016C44.3828 16.9551 43.5749 17.7778 42.5214 18.3697C41.4679 18.9556 40.2013 19.2486 38.7217 19.2486ZM38.7572 15.6264C39.1715 15.6264 39.5296 15.4873 39.8314 15.2092C40.1333 14.931 40.367 14.5344 40.5328 14.0195C40.6985 13.5046 40.7813 12.892 40.7813 12.1818C40.7813 11.4657 40.6985 10.8531 40.5328 10.3441C40.367 9.82919 40.1333 9.43265 39.8314 9.15447C39.5296 8.8763 39.1715 8.73722 38.7572 8.73722C38.3192 8.73722 37.9434 8.8763 37.6297 9.15447C37.316 9.43265 37.0763 9.82919 36.9106 10.3441C36.7449 10.8531 36.662 11.4657 36.662 12.1818C36.662 12.892 36.7449 13.5046 36.9106 14.0195C37.0763 14.5344 37.316 14.931 37.6297 15.2092C37.9434 15.4873 38.3192 15.6264 38.7572 15.6264ZM47.2089 4.79545V0.818181H63.0115V4.79545H57.5427V19H52.6776V4.79545H47.2089Z" fill="white"></path> <path d="M74.6703 6.5C74.6229 5.90814 74.401 5.4465 74.0044 5.11506C73.6138 4.78362 73.019 4.6179 72.22 4.6179C71.711 4.6179 71.2937 4.68004 70.9682 4.80433C70.6486 4.9227 70.4119 5.08546 70.258 5.29261C70.1041 5.49976 70.0242 5.73651 70.0183 6.00284C70.0065 6.22183 70.0449 6.4201 70.1337 6.59766C70.2284 6.76929 70.3764 6.92614 70.5776 7.06818C70.7788 7.20431 71.0363 7.3286 71.35 7.44105C71.6636 7.5535 72.0365 7.65412 72.4686 7.7429L73.96 8.0625C74.9662 8.27557 75.8274 8.5567 76.5435 8.90589C77.2596 9.25509 77.8456 9.66643 78.3013 10.1399C78.757 10.6075 79.0914 11.1342 79.3045 11.7202C79.5235 12.3061 79.6359 12.9453 79.6419 13.6378C79.6359 14.8333 79.3371 15.8454 78.7452 16.674C78.1533 17.5026 77.307 18.1329 76.2061 18.565C75.1112 18.997 73.7943 19.2131 72.2555 19.2131C70.6752 19.2131 69.2962 18.9793 68.1184 18.5117C66.9466 18.0442 66.0351 17.325 65.3841 16.3544C64.7389 15.3778 64.4134 14.129 64.4075 12.608H69.095C69.1246 13.1643 69.2637 13.6319 69.5123 14.0107C69.7608 14.3894 70.11 14.6765 70.5598 14.8718C71.0156 15.0671 71.5571 15.1648 72.1845 15.1648C72.7112 15.1648 73.1522 15.0997 73.5073 14.9695C73.8624 14.8393 74.1317 14.6587 74.3152 14.4279C74.4986 14.1971 74.5933 13.9337 74.5993 13.6378C74.5933 13.3596 74.5016 13.117 74.324 12.9098C74.1524 12.6967 73.8683 12.5073 73.4718 12.3416C73.0752 12.17 72.5396 12.0102 71.8649 11.8622L70.0538 11.4716C68.444 11.1224 67.1744 10.5394 66.2452 9.72266C65.3219 8.89998 64.8632 7.77841 64.8691 6.35795C64.8632 5.20383 65.171 4.19472 65.7924 3.33061C66.4198 2.46058 67.2869 1.78291 68.3936 1.29758C69.5063 0.812263 70.7818 0.569602 72.22 0.569602C73.6878 0.569602 74.9573 0.815222 76.0286 1.30646C77.0998 1.7977 77.9255 2.49018 78.5055 3.38388C79.0914 4.27166 79.3874 5.31037 79.3933 6.5H74.6703ZM81.0224 4.79545V0.818181H96.8249V4.79545H91.3562V19H86.4911V4.79545H81.0224ZM115.442 9.90909C115.442 11.9332 115.048 13.6407 114.261 15.0316C113.474 16.4165 112.411 17.4671 111.074 18.1832C109.736 18.8935 108.245 19.2486 106.599 19.2486C104.942 19.2486 103.445 18.8905 102.107 18.1744C100.776 17.4523 99.7161 16.3988 98.929 15.0138C98.1477 13.623 97.7571 11.9214 97.7571 9.90909C97.7571 7.88494 98.1477 6.1804 98.929 4.79545C99.7161 3.40459 100.776 2.35405 102.107 1.64382C103.445 0.927675 104.942 0.569602 106.599 0.569602C108.245 0.569602 109.736 0.927675 111.074 1.64382C112.411 2.35405 113.474 3.40459 114.261 4.79545C115.048 6.1804 115.442 7.88494 115.442 9.90909ZM110.364 9.90909C110.364 8.82008 110.219 7.9027 109.929 7.15696C109.645 6.4053 109.221 5.83712 108.659 5.45241C108.103 5.06179 107.416 4.86648 106.599 4.86648C105.783 4.86648 105.093 5.06179 104.531 5.45241C103.975 5.83712 103.551 6.4053 103.261 7.15696C102.977 7.9027 102.835 8.82008 102.835 9.90909C102.835 10.9981 102.977 11.9184 103.261 12.6701C103.551 13.4158 103.975 13.984 104.531 14.3746C105.093 14.7594 105.783 14.9517 106.599 14.9517C107.416 14.9517 108.103 14.7594 108.659 14.3746C109.221 13.984 109.645 13.4158 109.929 12.6701C110.219 11.9184 110.364 10.9981 110.364 9.90909ZM117.726 19V0.818181H125.574C126.923 0.818181 128.104 1.0638 129.116 1.55504C130.128 2.04628 130.915 2.75355 131.477 3.67685C132.04 4.60014 132.321 5.70691 132.321 6.99716C132.321 8.29924 132.031 9.39713 131.451 10.2908C130.877 11.1845 130.069 11.8593 129.027 12.315C127.991 12.7707 126.781 12.9986 125.396 12.9986H120.709V9.16335H124.402C124.982 9.16335 125.476 9.09233 125.884 8.95028C126.299 8.80232 126.615 8.56854 126.834 8.24893C127.059 7.92933 127.172 7.51207 127.172 6.99716C127.172 6.47633 127.059 6.05315 126.834 5.72763C126.615 5.39619 126.299 5.15353 125.884 4.99964C125.476 4.83984 124.982 4.75994 124.402 4.75994H122.662V19H117.726ZM128.379 10.6548L132.924 19H127.562L123.123 10.6548H128.379ZM134.425 19V0.818181H147.528V4.79545H139.361V7.92045H146.854V11.8977H139.361V15.0227H147.493V19H134.425Z" fill="#0089FF"></path> </svg> 