<svg width="300" height="83" viewBox="0 0 300 83" fill="none" xmlns="http://www.w3.org/2000/svg">
<path d="M283.011 200L273.774 200L300 154.574L300 170.574L283.011 200Z" fill="white"/>
<path d="M300 127.273L258.011 200L248.774 200L300 111.273L300 127.273Z" fill="white"/>
<path d="M300 83.9719L233.011 200L223.774 200L300 67.9719L300 83.9719Z" fill="white"/>
<path d="M300 40.6706L208.011 200L198.774 200L300 24.6706L300 40.6706Z" fill="white"/>
<path d="M298.481 -6.63898e-08L183.011 200L173.774 200L289.244 -4.70178e-07L298.481 -6.63898e-08Z" fill="white"/>
<path d="M273.481 -1.15917e-06L158.011 200L148.774 200L264.244 -1.56296e-06L273.481 -1.15917e-06Z" fill="white"/>
<path d="M248.481 -2.25196e-06L133.011 200L123.774 200L239.244 -2.65575e-06L248.481 -2.25196e-06Z" fill="white"/>
<path d="M223.481 -3.34474e-06L108.011 200L98.7735 200L214.244 -3.74853e-06L223.481 -3.34474e-06Z" fill="white"/>
<path d="M198.481 -4.43753e-06L83.0111 200L73.7735 200L189.244 -4.84132e-06L198.481 -4.43753e-06Z" fill="white"/>
<path d="M173.481 -5.53031e-06L58.0111 200L48.7735 200L164.244 -5.9341e-06L173.481 -5.53031e-06Z" fill="white"/>
<path d="M148.481 -6.6231e-06L33.0111 200L23.7735 200L139.244 -7.02689e-06L148.481 -6.6231e-06Z" fill="white"/>
<path d="M123.481 -7.71588e-06L8.01114 200L0 200L9.28563e-08 197.876L114.244 -8.11967e-06L123.481 -7.71588e-06Z" fill="white"/>
<path d="M98.4812 -8.80867e-06L1.28623e-06 170.574L1.98562e-06 154.574L89.2436 -9.21246e-06L98.4812 -8.80867e-06Z" fill="white"/>
<path d="M73.4812 -9.90145e-06L3.17899e-06 127.273L3.87837e-06 111.273L64.2436 -1.03052e-05L73.4812 -9.90145e-06Z" fill="white"/>
<path d="M48.4812 -1.09942e-05L5.07175e-06 83.9718L5.77113e-06 67.9719L39.2436 -1.1398e-05L48.4812 -1.09942e-05Z" fill="white"/>
<path d="M23.4811 -1.2087e-05L6.96451e-06 40.6705L7.66389e-06 24.6705L14.2436 -1.24908e-05L23.4811 -1.2087e-05Z" fill="white"/>
</svg>
