<svg width="100%" height="100%" viewBox="0 0 24 24" fill="none" xmlns="http://www.w3.org/2000/svg">
<path fill-rule="evenodd" clip-rule="evenodd" d="M10.8566 8.33802C11.3747 7.63981 11.5605 6.90396 10.9745 6.25443C9.65955 4.41445 8.77521 3.27662 8.22051 2.72866C7.16595 1.68693 5.43118 1.82784 4.51785 2.72777C4.0273 3.21113 3.86122 3.37712 3.35753 3.88873C0.551877 6.69589 2.26291 12.6301 6.81145 17.1831C11.359 21.7351 17.2926 23.4471 20.1042 20.634C20.569 20.1859 20.9625 19.7921 21.2729 19.4641C22.1679 18.5181 22.3038 16.8598 21.267 15.7825C20.7354 15.2302 19.6504 14.3886 17.733 13.0171C17.1457 12.492 16.4495 12.6058 15.8111 13.0246C15.504 13.226 15.2806 13.4298 14.8586 13.8522L14.0924 14.6188C13.9914 14.7198 12.621 14.0335 11.2908 12.702C9.95978 11.3697 9.27396 9.99918 9.37441 9.89874L10.1412 9.13155C10.2751 8.99754 10.3391 8.93266 10.4211 8.84639C10.5921 8.66666 10.7337 8.50356 10.8566 8.33802ZM15.5058 16.0331L16.2722 15.2662C16.5044 15.0338 16.6549 14.8909 16.7774 14.7923C18.457 15.9985 19.4298 16.757 19.8271 17.1698C20.0657 17.4177 20.0286 17.87 19.8212 18.0892C19.5342 18.3925 19.1614 18.7656 18.7038 19.2069C16.8858 21.0257 12.096 19.6438 8.22519 15.7692C4.35321 11.8934 2.97194 7.10291 4.77626 5.29761C5.27792 4.7881 5.43686 4.62924 5.92042 4.15278C6.10172 3.97413 6.59558 3.93401 6.81614 4.15189C7.2432 4.57376 8.0354 5.58811 9.20077 7.21145C9.14044 7.28635 9.06509 7.37099 8.97339 7.46737C8.90609 7.5381 8.85002 7.59494 8.72744 7.71764L7.96142 8.48408C6.65827 9.78712 7.76808 12.0048 9.87703 14.1159C11.9845 16.2254 14.2031 17.3365 15.5058 16.0331ZM13.6551 2.06956C17.9784 2.5936 21.4064 6.02165 21.9305 10.345L19.955 10.6742C19.5736 7.19184 16.8082 4.42642 13.3258 4.045L13.6551 2.06956ZM12.9963 6.02214C15.6378 6.2584 17.7416 8.36221 17.9779 11.0037L15.9961 11.334C15.912 9.53314 14.4669 8.08802 12.666 8.00392L12.9963 6.02214Z" fill="currentColor"/>
</svg>
