<svg width="100%" height="100%" viewBox="0 0 165 162" fill="none" xmlns="http://www.w3.org/2000/svg">
<g opacity="0.1">
<path d="M141.906 178.125H48.0938C27.9063 178.125 11.875 162.094 11.875 141.906V48.0938C11.875 27.9063 27.9063 11.875 48.0938 11.875H141.906C162.094 11.875 178.125 27.9063 178.125 48.0938V141.906C178.125 162.094 162.094 178.125 141.906 178.125Z" stroke="currentColor" stroke-width="7" stroke-miterlimit="10" stroke-linecap="round" stroke-linejoin="round"/>
<path d="M56.9995 125.877V100.346H78.3745L89.6558 89.6583H103.906V125.877" stroke="currentColor" stroke-width="7" stroke-miterlimit="10" stroke-linecap="round" stroke-linejoin="round"/>
<path d="M140.125 125.876H49.2808V140.72H140.125V125.876Z" stroke="currentColor" stroke-width="7" stroke-miterlimit="10" stroke-linecap="round" stroke-linejoin="round"/>
<path d="M74.8121 49.283H64.1246V100.345H74.8121V49.283Z" stroke="currentColor" stroke-width="7" stroke-miterlimit="10" stroke-linecap="round" stroke-linejoin="round"/>
<path d="M96.7808 89.6574V60.5637H125.875V71.2512" stroke="currentColor" stroke-width="7" stroke-miterlimit="10" stroke-linecap="round" stroke-linejoin="round"/>
<path d="M125.874 111.627C119.937 111.627 115.187 106.877 115.187 100.94V82.5333C115.187 76.5958 119.937 71.8458 125.874 71.8458C131.812 71.8458 136.562 76.5958 136.562 82.5333V100.94C137.156 106.283 131.812 111.627 125.874 111.627Z" stroke="currentColor" stroke-width="7" stroke-miterlimit="10" stroke-linecap="round" stroke-linejoin="round"/>
<path d="M118.75 125.877V111.627" stroke="currentColor" stroke-width="7" stroke-miterlimit="10" stroke-linecap="round" stroke-linejoin="round"/>
<path d="M132.999 111.627V125.877" stroke="currentColor" stroke-width="7" stroke-miterlimit="10" stroke-linecap="round" stroke-linejoin="round"/>
</g>
</svg>
