<svg width="100%" height="100%" viewBox="0 0 17 16" fill="none" xmlns="http://www.w3.org/2000/svg">
<path d="M3.55029 1V8.6" stroke="currentColor" stroke-miterlimit="10" stroke-linecap="round" stroke-linejoin="round"/>
<path d="M3.55029 12.1V15" stroke="currentColor" stroke-miterlimit="10" stroke-linecap="round" stroke-linejoin="round"/>
<path d="M3.55015 11.8C4.32335 11.8 4.95015 11.1732 4.95015 10.4C4.95015 9.6268 4.32335 9 3.55015 9C2.77695 9 2.15015 9.6268 2.15015 10.4C2.15015 11.1732 2.77695 11.8 3.55015 11.8Z" stroke="currentColor" stroke-miterlimit="10" stroke-linecap="round" stroke-linejoin="round"/>
<path d="M8.5 1V3.9" stroke="currentColor" stroke-miterlimit="10" stroke-linecap="round" stroke-linejoin="round"/>
<path d="M8.5 7.39999V15" stroke="currentColor" stroke-miterlimit="10" stroke-linecap="round" stroke-linejoin="round"/>
<path d="M8.5001 7.15001C9.2733 7.15001 9.9001 6.5232 9.9001 5.75001C9.9001 4.97681 9.2733 4.35001 8.5001 4.35001C7.7269 4.35001 7.1001 4.97681 7.1001 5.75001C7.1001 6.5232 7.7269 7.15001 8.5001 7.15001Z" stroke="currentColor" stroke-miterlimit="10" stroke-linecap="round" stroke-linejoin="round"/>
<path d="M13.4502 1V6.25" stroke="currentColor" stroke-miterlimit="10" stroke-linecap="round" stroke-linejoin="round"/>
<path d="M13.4502 9.75V15" stroke="currentColor" stroke-miterlimit="10" stroke-linecap="round" stroke-linejoin="round"/>
<path d="M13.4503 9.50001C14.2235 9.50001 14.8503 8.87321 14.8503 8.10001C14.8503 7.32681 14.2235 6.70001 13.4503 6.70001C12.6771 6.70001 12.0503 7.32681 12.0503 8.10001C12.0503 8.87321 12.6771 9.50001 13.4503 9.50001Z" stroke="currentColor" stroke-miterlimit="10" stroke-linecap="round" stroke-linejoin="round"/>
</svg>
